<!DOCTYPE svg PUBLIC "-//W3C//DTD SVG 1.1//EN" "http://www.w3.org/Graphics/SVG/1.1/DTD/svg11.dtd">
<!-- Uploaded to: SVG Repo, www.svgrepo.com, Transformed by: SVG Repo Mixer Tools -->
<svg fill="#6e0069" version="1.1" id="Capa_1" xmlns="http://www.w3.org/2000/svg" xmlns:xlink="http://www.w3.org/1999/xlink" width="800px" height="800px" viewBox="-5.06 -5.06 60.72 60.72" xml:space="preserve">
<g id="SVGRepo_bgCarrier" stroke-width="0" transform="translate(0,0), scale(1)">
<path transform="translate(-5.06, -5.06), scale(1.8975)" d="M16,27.672462534159422C18.651406406676596,27.720505444684616,21.224054753729686,30.317461102090633,23.656755356118083,29.261889297921655C26.038766079666672,28.22831231169596,26.835065162832823,25.162422587813772,27.54249714477083,22.664063833653927C28.15830624312765,20.489279414724653,27.620454389715302,18.250654182991465,27.41197450334827,16C27.221886079965532,13.947891699866855,26.93044423456755,11.995933324537964,26.370576864634593,10.012544655551515C25.654392971269445,7.475388365873242,25.94799708622851,4.042164890408284,23.664597950875766,2.724526929494882C21.381046184345845,1.4068008925942581,18.63590038951844,4.083325580573544,16,4.028191967556875C13.281259247970286,3.971325630304108,10.64096379197927,1.3136848655827942,8.148022272934522,2.39997563682339C5.706969573940883,3.4636560315583678,5.344388351551403,6.78134044656473,4.182958125893805,9.1774276929597C3.1015789836849352,11.408365646806342,1.128798723132802,13.557846564423876,1.5558251862724628,15.999999999999998C1.9851464168107436,18.455277151715823,5.174606624936556,19.373436656231718,6.350118367042969,21.571361758435756C7.58505494618343,23.88039705744436,6.2885145923330095,27.587951062704114,8.50178776122629,28.987284563490828C10.68377732894919,30.36683912701927,13.418902958910126,27.62569361412903,16,27.672462534159422" fill="#7ed0ec" strokewidth="0"/>
</g>
<g id="SVGRepo_tracerCarrier" stroke-linecap="round" stroke-linejoin="round" stroke="#CCCCCC" stroke-width="1.3156"/>
<g id="SVGRepo_iconCarrier"> <g> <g> <circle cx="11.388" cy="22.247" r="2.402"/> <circle cx="34.027" cy="22.247" r="2.402"/> <path d="M3.551,5.994c0.483-0.305,11.935-7.367,18.743,3.155c0.299,0.463,0.802,0.713,1.313,0.713c0.291,0,0.585-0.081,0.847-0.25 c0.725-0.469,0.932-1.436,0.464-2.161C16.415-5.688,2.02,3.264,1.875,3.356c-0.728,0.463-0.94,1.426-0.479,2.155 C1.857,6.238,2.823,6.455,3.551,5.994z"/> <path d="M28.178,5.557c10.304-7.115,18.184,3.768,18.524,4.252c0.304,0.433,0.788,0.664,1.279,0.664 c0.311,0,0.624-0.091,0.896-0.283c0.706-0.496,0.878-1.469,0.382-2.176c-0.098-0.14-9.98-13.917-22.858-5.028 c-0.71,0.491-0.889,1.464-0.397,2.173C26.494,5.869,27.465,6.046,28.178,5.557z"/> <path d="M7.301,34.818c1.542,9.013,8.079,15.781,15.911,15.781c7.406,0,13.653-6.057,15.613-14.337 c0.132-0.56,0.633-1.231,1.113-1.548c3.649-2.412,6.149-7.32,6.149-12.992c0-8.055-5.039-14.586-11.258-14.586 c-2.771,0-5.309,1.299-7.269,3.453c-0.388,0.425-1.119,0.665-1.683,0.551c-0.868-0.177-1.757-0.271-2.666-0.271 c-0.505,0-1.004,0.028-1.497,0.083c-0.571,0.064-1.292-0.23-1.655-0.677c-2.018-2.488-4.741-4.022-7.745-4.022 c-6.217,0-11.259,6.53-11.259,14.586c0,5.194,2.1,9.746,5.255,12.328C6.758,33.532,7.204,34.251,7.301,34.818z M34.508,10.336 c5.076,0,9.192,5.333,9.192,11.91c0,6.577-4.116,11.91-9.192,11.91s-9.192-5.333-9.192-11.91 C25.316,15.669,29.432,10.336,34.508,10.336z M23.26,44.474c4.288,0,8.305-2.851,8.344-2.881c0.342-0.245,0.852-0.157,1.092,0.181 c0.251,0.348,0.171,0.837-0.178,1.088c-0.183,0.131-4.496,3.181-9.229,3.181c-1.24,0-2.416-0.21-3.494-0.622 c-5.916-2.263-7.327-8.833-7.385-9.111c-0.085-0.422,0.189-0.836,0.608-0.923c0.412-0.091,0.836,0.192,0.923,0.606 c0.052,0.244,1.349,6.032,6.41,7.968C21.24,44.302,22.218,44.474,23.26,44.474z M12.379,9.08c5.076,0,9.191,5.333,9.191,11.911 c0,6.578-4.115,11.909-9.191,11.909c-5.076,0-9.192-5.332-9.192-11.909S7.303,9.08,12.379,9.08z"/> </g> </g> </g>
</svg>