<?xml version="1.0" encoding="utf-8"?>
<!-- Generator: Adobe Illustrator 25.0.1, SVG Export Plug-In . SVG Version: 6.00 Build 0)  -->
<svg version="1.1" id="Logo_design" xmlns="http://www.w3.org/2000/svg" xmlns:xlink="http://www.w3.org/1999/xlink" x="0px"
	 y="0px" viewBox="0 0 538.6 340.2" style="enable-background:new 0 0 538.6 340.2;" xml:space="preserve">
<style type="text/css">
	.st0{fill:#323232;}
	.st1{fill:#6E001E;}
	.st2{fill:#00BEE6;}
	.st3{fill:#FABE3C;}
	.st4{fill:#004650;}
	.st5{fill:#FF413C;}
	.st6{fill:#282864;}
	.st7{fill:#00D2C8;}
	.st8{fill:#A6A6A5;}
	.st9{fill:#6E0069;}
	.st10{fill:#FFFFFF;}
</style>
<g>
	<g>
		<g>
			<polygon class="st0" points="337.7,142 328.4,152.6 319.1,142 312,142 312,170 320.6,170 320.6,155.4 328.5,164 336.2,155.4 
				336.2,170 344.8,170 344.8,142 			"/>
		</g>
		<path class="st0" d="M367.8,141.6c8.9,0,15,5.9,15,14.4c0,8.5-6.1,14.4-15,14.4c-8.9,0-15.1-5.9-15.1-14.5
			C352.8,147.5,358.9,141.6,367.8,141.6z M367.8,162.6c3.5,0,5.9-2.7,5.9-6.6c0-3.8-2.4-6.5-5.9-6.5c-3.6,0-6,2.6-6,6.5
			C361.8,159.9,364.2,162.6,367.8,162.6z"/>
		<path class="st0" d="M410,170h-12.3l-9.7-28h9.9l5.9,19.6l5.8-19.6h9.9L410,170z"/>
		<path class="st0" d="M449.3,170h-22.1v-28h22v7.1h-13.1v3.3h11.9v7h-11.9v3.7h13.1V170z"/>
		<path class="st0" d="M457.1,163.6l13.5-14.6h-13v-7h24.2v6.6l-13.3,14.1h13.7v7.3h-25V163.6z"/>
	</g>
	<g>
		<path class="st0" d="M328.8,198.6H327l-13.3-16.2v16.2H312v-18.4h1.8l13.3,16.2v-16.2h1.6V198.6z"/>
		<path class="st0" d="M340.1,198.6v-18.4h13.1v1.5h-11.4v6.8h10v1.5h-10v7.3h11.7v1.5H340.1z"/>
		<path class="st0" d="M368.6,181.6v16.9H367v-16.9h-6.3v-1.5h14.2v1.5H368.6z"/>
		<path class="st0" d="M381.2,180.1h1.7l5.1,16.4l5.5-16.4h1.7l5.5,16.4l5.1-16.4h1.7l-5.8,18.4h-2l-5.5-16.4l-5.4,16.4h-2
			L381.2,180.1z"/>
		<path class="st0" d="M424.6,179.9c5.6,0,9.8,4,9.8,9.6c0,5.5-4.2,9.4-9.8,9.4c-5.5,0-9.7-3.9-9.7-9.4
			C414.9,183.9,419.1,179.9,424.6,179.9z M424.6,197.4c4.7,0,8.1-3.3,8.1-7.9c0-4.7-3.4-8.1-8.1-8.1c-4.6,0-8,3.4-8,8.1
			C416.5,194.1,420,197.4,424.6,197.4z"/>
		<path class="st0" d="M445.8,192.6v5.9h-1.6v-18.4h7.9c3.5,0,6.4,2,6.4,6.3c0,3.1-1.8,5.2-4.3,5.9l5.1,6.2h-2.1l-4.8-5.9
			c-0.1,0-0.2,0-0.3,0H445.8z M445.8,191.2h6.3c2.6,0,4.8-1.8,4.8-4.7c0-3.3-2.2-4.8-4.8-4.8h-6.3V191.2z"/>
		<path class="st0" d="M476.3,189.6l6.8,8.9h-2.1l-6.2-8.1H470v8.1h-1.6v-18.4h1.6v8.8h4.9l5.2-8.8h1.9L476.3,189.6z"/>
	</g>
</g>
<path class="st7" d="M275.2,133.4l-20-20l-28.3,28.3v-28.3h-28.3L226.8,85l-20-20l-36.6,36.6L133.4,65l-20,20l28.3,28.3h-28.3v28.3
	L85,113.4l-20,20l36.6,36.6L65,206.7l20,20l28.3-28.3v28.3h28.3l-28.3,28.3l20,20l36.6-36.6l36.6,36.6l20-20l-28.3-28.3h28.3v-28.3
	l28.3,28.3l20-20l-36.6-36.6L275.2,133.4z M141.7,141.7h56.7v56.7h-56.7V141.7z"/>
</svg>
