<!DOCTYPE svg PUBLIC "-//W3C//DTD SVG 1.1//EN" "http://www.w3.org/Graphics/SVG/1.1/DTD/svg11.dtd">
<!-- Uploaded to: SVG Repo, www.svgrepo.com, Transformed by: SVG Repo Mixer Tools -->
<svg fill="#6e0069" version="1.1" id="Capa_1" xmlns="http://www.w3.org/2000/svg" xmlns:xlink="http://www.w3.org/1999/xlink" width="256px" height="256px" viewBox="-5.5 -5.5 65.99 65.99" xml:space="preserve" stroke="#6e0069" stroke-width="0.0005499000000000001" transform="matrix(1, 0, 0, 1, 0, 0)">
<g id="SVGRepo_bgCarrier" stroke-width="0">
<path transform="translate(-5.5, -5.5), scale(2.0621875)" d="M16,30.670234241767933C18.04354033699359,31.805098724240843,20.736126632654646,31.204112396703938,22.917912186338377,30.365192674540154C25.148882663224885,29.507360826921026,27.72233147995568,28.18655846094527,28.41153357084181,25.897867737966948C29.164066648982786,23.398868536642524,27.195912447901005,20.92224808311211,26.52065331632052,18.401270465771248C26.11094337911908,16.871680515807206,25.09696535994514,15.48090198595218,25.197997296400004,13.900617139638458C25.352410791114433,11.48536791918455,28.534299455608217,9.080132495970338,27.247629650026013,7.0303146660995495C26.044897091106254,5.114218840158966,22.703517453618495,7.25895766446688,20.565266424424482,6.52012658862928C18.753646239554325,5.894156451389942,17.869477566650627,3.5668332475683107,16,3.1439148928774046C14.097197331262041,2.7134576419750114,11.944395567443975,3.1240383110864176,10.318408788960099,4.2020542836983115C8.712735475463665,5.266602594699837,8.213388954771348,7.343306103344679,7.197267269681687,8.980054898126994C6.285260100218882,10.4490980819848,5.470567693809816,11.901164765038612,4.608227260576003,13.399902210490868C3.4516956566782504,15.4099404213984,1.2370026327743537,17.055265287681923,1.2167120068712283,19.374189014461894C1.1970383016793098,21.62260766753983,2.4602000902154333,24.23214517636707,4.50526717928615,25.166743536832463C6.822031372131607,26.225507832532017,9.704071980941022,23.20287925673773,12.00154714157341,24.302872913708633C14.29074457568952,25.398903330154425,13.781142635752218,29.43800879029344,16,30.670234241767933" fill="#7ed0ec" strokewidth="0"/>
</g>
<g id="SVGRepo_tracerCarrier" stroke-linecap="round" stroke-linejoin="round"/>
<g id="SVGRepo_iconCarrier"> <g> <g> <circle cx="18.926" cy="24.227" r="2.402"/> <circle cx="34.275" cy="24.227" r="2.402"/> <path d="M3.956,12.968l0.956-0.651c0.475-0.324,0.658-0.167,0.458,0.374c-1.027,2.795-1.104,6.248,0.012,9.677 c0.573,1.756,1.403,3.333,2.409,4.677c0.345,0.46,0.576,1.271,0.504,1.842c-0.141,1.124-0.214,2.275-0.214,3.448 c0,12.512,8.234,22.655,18.392,22.655c10.156,0,18.393-10.144,18.393-22.655c0-0.66-0.031-1.311-0.081-1.955 c-0.045-0.575,0.261-1.336,0.671-1.74c1.635-1.618,2.981-3.759,3.799-6.271c1.09-3.339,1.042-6.696,0.09-9.45 c-0.188-0.544,0.034-0.76,0.549-0.502l1.345,0.674c0.257,0.128,0.529,0.189,0.798,0.189c0.653,0,1.282-0.36,1.593-0.984 c0.441-0.881,0.086-1.95-0.795-2.392L38.32,2.632c-0.881-0.438-1.951-0.083-2.391,0.796c-0.441,0.88-0.085,1.951,0.794,2.392 L38.1,6.508c0.515,0.257,0.48,0.587-0.054,0.8c-1.572,0.628-3.063,1.684-4.351,3.081c-0.39,0.423-1.1,0.589-1.634,0.376 c-1.762-0.699-3.637-1.089-5.587-1.089c-1.484,0-2.924,0.223-4.306,0.633c-0.551,0.164-1.294-0.024-1.704-0.427 c-1.822-1.786-3.997-2.914-6.205-3.173c-0.572-0.067-0.654-0.319-0.179-0.644l4.126-2.811c0.814-0.554,1.022-1.663,0.469-2.476 c-0.552-0.812-1.663-1.022-2.476-0.469L1.95,10.022c-0.813,0.554-1.022,1.663-0.469,2.476c0.345,0.506,0.904,0.778,1.474,0.778 C3.3,13.277,3.648,13.177,3.956,12.968z M32.086,14.993c3.123-5.27,8.952-7.587,13.019-5.177 c4.066,2.411,4.832,8.635,1.709,13.904s-8.949,7.588-13.017,5.178C29.729,26.487,28.965,20.262,32.086,14.993z M27.705,39.653 c5.459,0.444,6.951,6.909,7.012,7.184c0.091,0.42-0.175,0.837-0.594,0.931c-0.058,0.015-0.117,0.021-0.178,0.021 c-0.364,0-0.675-0.252-0.755-0.613c-0.012-0.055-1.33-5.617-5.611-5.965c-4.34-0.355-6.858,6.016-6.883,6.078 c-0.154,0.394-0.621,0.599-1.013,0.442c-0.401-0.156-0.599-0.609-0.443-1.012C19.356,46.422,22.258,39.208,27.705,39.653z M9.837,9.816c4.067-2.41,9.896-0.092,13.018,5.177c3.122,5.27,2.357,11.495-1.71,13.904c-4.067,2.41-9.894,0.092-13.018-5.178 C5.007,18.451,5.771,12.227,9.837,9.816z"/> </g> </g> </g>
</svg>